<svg class="climate-icon" data-name="Layer 1" xmlns="http://www.w3.org/2000/svg" viewBox="0 0 100 100"><defs><style>
svg,
svg line,
svg polyline,
svg polygon,
svg path,
svg circle,
svg clipPath,
svg rect {
    filter: drop-shadow(0px 1px 2px rgb(46, 19, 62, 0.6));
}
.climate-cls-2,.climate-cls-1{fill:#fff;stroke:#fff;stroke-linecap:round;stroke-linejoin:round;stroke-width:2px;}.climate-cls-1{stroke-width:2.5px;}</style></defs>
                            <path class="climate-cls-1" d="M62.42,32.1A25,25,0,0,1,73,40.64a22.53,22.53,0,0,1,4.33,13,28.11,28.11,0,0,1-3.53,13.25,29.07,29.07,0,0,1-9.19,10,30.08,30.08,0,0,0,4.81-4.76,31.05,31.05,0,0,0,3.71-5.62,28.16,28.16,0,0,0,3.2-12.88,22.14,22.14,0,0,0-4-12.53A27,27,0,0,0,67.93,36,24,24,0,0,0,62.42,32.1Z"/>
                            <path class="climate-cls-1" d="M66.53,69.09A28.15,28.15,0,0,1,56.06,76,24.78,24.78,0,0,1,43.5,77.47,27.92,27.92,0,0,1,31.74,72.8a28.78,28.78,0,0,1-8.53-9.22,29.67,29.67,0,0,0,4.09,4.71A31.45,31.45,0,0,0,37.68,75a29.17,29.17,0,0,0,6,1.54A25,25,0,0,0,55.8,75.31a32,32,0,0,0,5.65-2.58A27.08,27.08,0,0,0,66.53,69.09Z"/>
                            <path class="climate-cls-1" d="M29.15,60.87a9,9,0,0,1-1.38-3.29A26.76,26.76,0,0,1,27.1,54,34.16,34.16,0,0,1,27,46.81a29.08,29.08,0,0,1,4.89-13.54,24.57,24.57,0,0,1,5-5.29,23.9,23.9,0,0,1,6.28-3.64,25.48,25.48,0,0,1,14.2-1.29,27.73,27.73,0,0,0-7.11.11A25.61,25.61,0,0,0,43.49,25a25,25,0,0,0-10.74,8.8,29.16,29.16,0,0,0-4.94,13.07A33.48,33.48,0,0,0,27.59,54,28.13,28.13,0,0,0,28,57.52a17.43,17.43,0,0,0,.42,1.73A5,5,0,0,0,29.15,60.87Z"/>
                            <path class="climate-cls-1" d="M60.14,73.38A24,24,0,0,1,42.27,74a22.72,22.72,0,0,1-13-12.42,23.39,23.39,0,0,1-1.84-9A24.08,24.08,0,0,1,34,35.92a24.2,24.2,0,0,1,7.43-5.3,23.3,23.3,0,0,1,18-.53A23.35,23.35,0,0,1,72.54,42.61a23.43,23.43,0,0,1,1.94,9,23,23,0,0,1-1.76,9A24,24,0,0,1,60.14,73.38Zm0-.09a22.41,22.41,0,0,0,12-12.86A23.42,23.42,0,0,0,71.59,43a23,23,0,0,0-29.93-11.9A22.4,22.4,0,0,0,29.42,43.72,22.69,22.69,0,0,0,30,61.22,23.73,23.73,0,0,0,42.5,73.39a22.41,22.41,0,0,0,17.6-.1Z"/>
                            <path class="climate-cls-1" d="M53.39,69.42a17.44,17.44,0,0,1-7-.57,18,18,0,0,1-2.75-33.48,17.59,17.59,0,0,1,6.84-1.7,18.33,18.33,0,0,0-11.91,6.52,17.84,17.84,0,0,0,2,24.74A18.39,18.39,0,0,0,53.39,69.42Z"/>
                            <path class="climate-cls-1" d="M47,39.56a12.16,12.16,0,0,1,4.33-1.21,13.38,13.38,0,0,1,4.53.46A12.22,12.22,0,0,1,63,44.33a12.4,12.4,0,0,1,1.34,9,13.19,13.19,0,0,1-1.78,4.19,12.46,12.46,0,0,1-3.12,3.23,13.55,13.55,0,0,0,4.14-7.57,12.4,12.4,0,0,0-1.44-8.3,12.13,12.13,0,0,0-6.54-5.29A13.36,13.36,0,0,0,47,39.56Z"/>
                            <path class="climate-cls-2" d="M59.16,51.53a8.41,8.41,0,0,1-2.23,5.73A8.58,8.58,0,0,1,51.2,60,8.43,8.43,0,0,1,45,57.76a8.6,8.6,0,0,1-2-2.82,8.86,8.86,0,0,1-.71-3.41A8.57,8.57,0,0,1,45,45.29a8.42,8.42,0,0,1,6.23-2.22,8.54,8.54,0,0,1,5.73,2.73A8.41,8.41,0,0,1,59.16,51.53Zm0,0a7.87,7.87,0,0,0-.64-3,7.43,7.43,0,0,0-12.33-2,7.45,7.45,0,0,0,0,10,7.55,7.55,0,0,0,5,2.44,7.44,7.44,0,0,0,5.53-1.93,7.55,7.55,0,0,0,1.79-2.5A7.87,7.87,0,0,0,59.16,51.53Z"/>
                            </svg> 