<svg id="Layer_1" data-name="Layer 1" xmlns="http://www.w3.org/2000/svg" xmlns:xlink="http://www.w3.org/1999/xlink" viewBox="0 0 158.36 50"><defs><style>.cls-1{fill:none;}.cls-2{fill:#b8ecd3;}.cls-3{clip-path:url(#clip-path);}.cls-4{fill:#fff;}.cls-5{fill:#12126d;}</style><clipPath id="clip-path"><rect class="cls-1" width="50" height="50" rx="13.4"/></clipPath></defs><path class="cls-2" d="M68.46,34.53,73.7,17.09h5.84l5.25,17.44H80.74l-1.57-5.64,2.11,1.59h-8.6l.22-3h7.54l-1.28,1.4-1.58-5.68-.88-3.56h-.19l-.87,3.56L72.5,34.53Z"/><path class="cls-2" d="M86.5,34.53V21.43h3.34l.31,5.14-.22-.78a9.16,9.16,0,0,1,.4-1.88,5.41,5.41,0,0,1,.74-1.46,3.32,3.32,0,0,1,1.1-.95,3.18,3.18,0,0,1,1.47-.33,3.85,3.85,0,0,1,.48,0,2.6,2.6,0,0,1,.45.08v3.88a4.81,4.81,0,0,0-.8-.14A4.53,4.53,0,0,0,93,25a5.54,5.54,0,0,0-1.2.12,2.82,2.82,0,0,0-.92.37,2.06,2.06,0,0,0-.66.62v8.46Z"/><path class="cls-2" d="M96.37,34.53V21.43h3.34l.31,5.14-.22-.78a8.54,8.54,0,0,1,.4-1.88,5.41,5.41,0,0,1,.74-1.46A3.39,3.39,0,0,1,102,21.5a3.25,3.25,0,0,1,1.48-.33,3.85,3.85,0,0,1,.48,0,2.32,2.32,0,0,1,.44.08v3.88a4.53,4.53,0,0,0-.79-.14,4.6,4.6,0,0,0-.74-.05,5.54,5.54,0,0,0-1.2.12,3,3,0,0,0-.93.37,2.29,2.29,0,0,0-.66.62v8.46Z"/><path class="cls-2" d="M112.09,34.71a6.77,6.77,0,0,1-3.39-.79,5.24,5.24,0,0,1-2.15-2.29,8.14,8.14,0,0,1-.74-3.65,7.93,7.93,0,0,1,.79-3.72,5.39,5.39,0,0,1,2.23-2.3,7,7,0,0,1,3.37-.78,6.33,6.33,0,0,1,3.15.71A4.56,4.56,0,0,1,117.29,24a7.87,7.87,0,0,1,.66,3.4c0,.17,0,.36,0,.59s0,.46,0,.74h-8.42a4,4,0,0,0,.79,2.39,2.32,2.32,0,0,0,1.85.74,2.2,2.2,0,0,0,1.48-.43,1.75,1.75,0,0,0,.62-1.14h3.57A4.49,4.49,0,0,1,115,34.17,7.25,7.25,0,0,1,112.09,34.71ZM111,26.6h3.37a2.85,2.85,0,0,0-.61-1.88,2.54,2.54,0,0,0-3.68.35,5.05,5.05,0,0,0-.64,2.73,1.24,1.24,0,0,1,.47-.93A1.85,1.85,0,0,1,111,26.6Z"/><path class="cls-2" d="M118.55,34.53l5.4-9.22a3.57,3.57,0,0,1,.83-1,3.44,3.44,0,0,1,1.08-.55l.35.22c-.51.07-1,.16-1.6.26a7.55,7.55,0,0,1-1.47.16h-3.67v-3h10.42l-5.12,8.86a4.22,4.22,0,0,1-1.13,1.33,5.69,5.69,0,0,1-1.38.74l0-.52c.49-.05,1-.12,1.58-.2a10.52,10.52,0,0,1,1.41-.12h4.27v3Z"/><path class="cls-2" d="M131.7,34.53V21.43h3.72v13.1Zm1.87-14.59a2.16,2.16,0,0,1-1.59-.65,2.28,2.28,0,0,1-.66-1.68,2.25,2.25,0,1,1,4.5,0,2.28,2.28,0,0,1-.66,1.68A2.16,2.16,0,0,1,133.57,19.94Z"/><path class="cls-2" d="M139,34.53v-9a1.38,1.38,0,0,1,.2-.86,1,1,0,0,1,.6-.36L139,22V19.88a4.86,4.86,0,0,1,.61-2.55,3.9,3.9,0,0,1,1.64-1.53,5.08,5.08,0,0,1,2.27-.51c.57,0,1,0,1.28,0s.59.07.88.12v3.21a3.19,3.19,0,0,0-.67-.15,6.17,6.17,0,0,0-.9-.06,1.66,1.66,0,0,0-.72.16,1,1,0,0,0-.49.54,2.67,2.67,0,0,0-.17,1.09V34.53Zm-1.61-10.18V21.43h7.77v2.92Z"/><path class="cls-2" d="M152.69,34.71a6.81,6.81,0,0,1-3.4-.79,5.3,5.3,0,0,1-2.15-2.29A8.28,8.28,0,0,1,146.4,28a7.93,7.93,0,0,1,.79-3.72,5.39,5.39,0,0,1,2.23-2.3,7,7,0,0,1,3.38-.78,6.31,6.31,0,0,1,3.14.71A4.51,4.51,0,0,1,157.88,24a7.87,7.87,0,0,1,.66,3.4c0,.17,0,.36,0,.59s0,.46,0,.74h-8.42a4.11,4.11,0,0,0,.79,2.39,2.33,2.33,0,0,0,1.85.74,2.23,2.23,0,0,0,1.49-.43,1.74,1.74,0,0,0,.61-1.14h3.58a4.72,4.72,0,0,1-.83,2.37,4.57,4.57,0,0,1-2,1.54A7.2,7.2,0,0,1,152.69,34.71Zm-1.11-8.11H155a2.91,2.91,0,0,0-.62-1.88,2.13,2.13,0,0,0-1.7-.63,2.19,2.19,0,0,0-2,1A5.05,5.05,0,0,0,150,27.8a1.28,1.28,0,0,1,.47-.93A1.85,1.85,0,0,1,151.58,26.6Z"/><g class="cls-3"><path class="cls-4" d="M50,51.13H0v-18c5-6.11-4-31,26-31S46.79,34,50,36.47Z"/><path class="cls-5" d="M-.93-.35l.05,33.11a6.66,6.66,0,0,1,4.26,3.89c2.43,5.1,7.35,7.05,9.58,6.1s2.95-2.84,2.31-5.32S12.13,30.58,8.91,29c-1.75-.85-2.9-.67-3.26-1.58C5,25.81,7.71,22.65,9.54,23c.92.15,1.15,1.1,2.44,3.14.93,1.46,3.7,5.82,5.3,5.49,1.31-.26,2.21-3.79,1.65-7-.95-5.51-5.54-7-4.87-10.2.59-2.82,4.85-4.87,6.75-4.1s2.67,8.42,2.41,12.94c-.16,2.95-1.25,10.18.18,10.38,1.89.26,2.94-3.75,2.88-7.44,0-1.71-1.21-4.67.52-5.51a4,4,0,0,1,4.6.63c1,1.17-.24,4.35-1.5,7.47-2.58,6.37-3.87,13.51-.65,13.82,3.92.38,4.72-3,4.78-7.55,0-2.55-.91-4.91,0-6.1,1.36-1.78,6.29-1.25,6.94.41.47,1.19-.77,2.48-1.64,5.09-1.2,3.61-.71,7.91.9,8.15,2.33.34,6-5.28,10.51-6.27V-.35ZM10.75,11.11a1.55,1.55,0,1,1,1.61-1.55A1.59,1.59,0,0,1,10.75,11.11Zm21.31-.62A2.21,2.21,0,0,1,29.8,8.32a2.26,2.26,0,0,1,4.52,0A2.21,2.21,0,0,1,32.06,10.49Zm9,12.38A2.79,2.79,0,1,1,44,20.09,2.84,2.84,0,0,1,41.1,22.87Z"/><path class="cls-5" d="M9.76,24c-.51-.55-1.82.29-2.34.78-.91.87-1,2.17-.57,2.59S8.06,27,8.92,25.93C9.38,25.35,10.27,24.54,9.76,24Z"/><path class="cls-5" d="M30.75,22.06c0,.69-.67.67-1.67.67-1.87,0-2.42-.38-2.06-1,.23-.36.8-.7,2.06-.7C29.92,21.06,30.75,21.56,30.75,22.06Z"/><path class="cls-5" d="M39.44,30.1c0,.81-.75.75-1.94.69-2.24-.11-2.91-.59-2.52-1.26.25-.43.92-.79,2.42-.72C38.39,28.86,39.41,29.5,39.44,30.1Z"/><path class="cls-5" d="M20.41,12c.89.65,0,1.34-1.2,2.39-2.32,2-3.49,2.2-3.81,1.26-.19-.59.08-1.51,1.64-2.84C18.07,12,19.75,11.54,20.41,12Z"/></g></svg>