<svg id="Layer_1" data-name="Layer 1" xmlns="http://www.w3.org/2000/svg" xmlns:xlink="http://www.w3.org/1999/xlink" viewBox="0 0 51.67 52.17"><defs><style>.cls-1{fill:none;}.cls-2{clip-path:url(#clip-path);}.cls-3{fill:#fff;}.cls-4{fill:#12126d;}</style><clipPath id="clip-path"><rect class="cls-1" x="0.93" y="1.25" width="50" height="50" rx="13.4"/></clipPath></defs><g class="cls-2"><path class="cls-3" d="M50.93,52.38H.93v-18c5-6.11-4-31,26-31s20.78,31.88,24,34.38Z"/><path class="cls-4" d="M0,.9.05,34A6.63,6.63,0,0,1,4.3,37.9C6.74,43,11.66,45,13.89,44s2.95-2.84,2.31-5.32-3.14-6.85-6.36-8.4c-1.76-.85-2.9-.67-3.27-1.58-.65-1.64,2.06-4.8,3.9-4.49.92.15,1.15,1.1,2.44,3.14.93,1.46,3.7,5.82,5.29,5.49,1.32-.26,2.22-3.79,1.66-7-.95-5.51-5.54-7-4.88-10.2.59-2.82,4.85-4.87,6.75-4.1s2.67,8.42,2.42,12.94c-.17,2.95-1.25,10.18.18,10.38,1.89.26,2.94-3.75,2.88-7.44,0-1.71-1.21-4.67.52-5.51a4,4,0,0,1,4.59.63c1,1.17-.23,4.35-1.49,7.47-2.58,6.37-3.87,13.51-.66,13.82,3.93.38,4.73-3,4.79-7.55,0-2.55-.91-4.91,0-6.1,1.36-1.78,6.29-1.25,6.94.41.47,1.19-.78,2.48-1.65,5.09-1.19,3.61-.71,7.91.9,8.15,2.33.34,6-5.28,10.52-6.27V.9ZM11.68,12.36a1.55,1.55,0,1,1,1.61-1.55A1.59,1.59,0,0,1,11.68,12.36ZM33,11.74a2.17,2.17,0,1,1,2.26-2.17A2.21,2.21,0,0,1,33,11.74Zm9,12.38a2.79,2.79,0,1,1,2.91-2.78A2.84,2.84,0,0,1,42,24.12Z"/><path class="cls-4" d="M10.69,25.23c-.51-.55-1.83.29-2.35.78-.9.87-1,2.17-.56,2.59s1.2-.32,2.06-1.42C10.3,26.6,11.2,25.79,10.69,25.23Z"/><path class="cls-4" d="M31.68,23.31C31.68,24,31,24,30,24c-1.87,0-2.42-.38-2.06-1,.23-.36.8-.7,2.06-.7C30.84,22.31,31.68,22.81,31.68,23.31Z"/><path class="cls-4" d="M40.37,31.35c0,.81-.76.75-1.95.69-2.23-.11-2.91-.59-2.51-1.26.25-.43.91-.79,2.42-.72C39.32,30.11,40.34,30.75,40.37,31.35Z"/><path class="cls-4" d="M21.33,13.27c.9.65.05,1.34-1.19,2.39-2.32,2-3.49,2.2-3.81,1.26-.2-.59.08-1.51,1.64-2.84C19,13.2,20.68,12.79,21.33,13.27Z"/></g></svg>