<svg class="pollution-icon" data-name="Layer 1" xmlns="http://www.w3.org/2000/svg" viewBox="0 0 100 100"><defs><style>
svg,
svg line,
svg polyline,
svg polygon,
svg path,
svg circle,
svg clipPath,
svg rect {
    filter: drop-shadow(0px 1px 2px rgb(46, 19, 62, 0.6));
}
.pol-cls-1{stroke-width:2px;fill: gray;stroke:#fff;stroke-linecap:round;stroke-linejoin:round;}.pol-cls-2{fill:#fff;}.pol-cls-3,.pol-cls-4{fill: #fff;stroke:#fff;stroke-linecap:round;stroke-linejoin:round;}
                        </style></defs>
                        
                        <path class="pol-cls-1" d="M71.36,47.1l2-2a3.72,3.72,0,0,0,.08-5.26,1.74,1.74,0,0,1,0-2.46l.79-.76a.14.14,0,0,0,0-.2l-4.64-4.8a.15.15,0,0,0-.2,0l-.79.76a1.74,1.74,0,0,1-2.46,0,3.73,3.73,0,0,0-5.27-.09L45.86,47.07C54,48,65,53,71.36,47.1Z"/>
                        <path class="pol-cls-1" d="M75,37.07a.27.27,0,0,0,.37,0L77.44,35a1,1,0,0,0,0-1.44l-4.88-5a1,1,0,0,0-1.46,0L69,30.61A.25.25,0,0,0,69,31Z"/>
                        <path class="pol-cls-1" d="M38.93,41.7A1.09,1.09,0,0,0,37.58,41L28,43.84a1.08,1.08,0,0,0-.73,1.35l1,3.28a60.09,60.09,0,0,1,12.25-1.41Z"/>
                        <path class="pol-cls-1" d="M24.29,49.47A28,28,0,0,0,18,51.18"/>
                        <path class="pol-cls-1" d="M29.74,38.7h5.06A1.24,1.24,0,0,1,36,39.94v1.92a.62.62,0,0,1-.62.62H29.12a.62.62,0,0,1-.62-.62V39.94a1.24,1.24,0,0,1,1.24-1.24Z" transform="translate(-10.3 10.98) rotate(-16.7)"/>
                        <path class="pol-cls-1" d="M74.15,49.25A30.29,30.29,0,0,0,84,46.1"/>
                        <path class="pol-cls-2" d="M22.77,62.6a18.89,18.89,0,0,1,5.29-1.91,13.3,13.3,0,0,1,5.78.26,24.1,24.1,0,0,0,2.61.61,13,13,0,0,0,2.42.07,16,16,0,0,0,5.07-1.32.1.1,0,0,1,.13.06.09.09,0,0,1,0,.1,7.91,7.91,0,0,1-4.93,3.15A6.73,6.73,0,0,1,36,63.49c-1-.29-1.86-.7-2.68-1a12,12,0,0,0-5.18-.78,19.55,19.55,0,0,0-5.33,1.1.1.1,0,0,1-.13-.06A.13.13,0,0,1,22.77,62.6Z"/>
                        <path class="pol-cls-2" d="M62.35,59a12.25,12.25,0,0,1,4.14-1.91,8.62,8.62,0,0,1,4.74.3,11.88,11.88,0,0,0,2,.59A7.47,7.47,0,0,0,75,58a12.2,12.2,0,0,0,3.91-1.3.11.11,0,0,1,.14.06.14.14,0,0,1,0,.09A5.74,5.74,0,0,1,75.4,60a4.78,4.78,0,0,1-2.65-.08,19.38,19.38,0,0,1-2.13-1,7.23,7.23,0,0,0-4-.79,12.69,12.69,0,0,0-4.19,1.1.1.1,0,0,1-.1-.18Z"/>
                        <path class="pol-cls-2" d="M33.78,72.29a30.15,30.15,0,0,0,9.71.1,33.18,33.18,0,0,0,4.71-1.1c1.55-.47,3.07-1.06,4.68-1.55a24.82,24.82,0,0,1,2.47-.64c.83-.17,1.61-.32,2.45-.47a17,17,0,0,1,5.14-.17,22.28,22.28,0,0,1,9.28,3.87.1.1,0,0,1,0,.14.12.12,0,0,1-.11,0,47.56,47.56,0,0,0-9.4-2.06,28.33,28.33,0,0,0-4.68.14c-.79.07-1.63.16-2.42.26s-1.56.25-2.34.43c-1.55.38-3.13.87-4.76,1.26a35.52,35.52,0,0,1-4.93.85,31.11,31.11,0,0,1-9.87-.9.1.1,0,0,1,0-.2Z"/>
                        <rect class="pol-cls-3" x="39.29" y="52.81" width="3.48" height="3.24" rx="0.64" transform="matrix(-0.5, 0.87, -0.87, -0.5, 108.69, 46.11)"/>
                        <rect class="pol-cls-4" x="56.14" y="60.75" width="2.26" height="2.26" rx="0.55" transform="translate(50.61 -22.17) rotate(38.25)"/>
                    </svg>