<svg width="30" height="30" viewBox="0 0 30 30" fill="none" xmlns="http://www.w3.org/2000/svg">
<path d="M18 26C17.4477 26 17 25.5523 17 25C17 24.4477 17.4477 24 18 24C18.5523 24 19 24.4477 19 25C19 25.5523 18.5523 26 18 26Z" fill="#FCE300" stroke="#FCE300" stroke-width="3" stroke-linecap="round" stroke-linejoin="round"/>
<path d="M7 26C6.44772 26 6 25.5523 6 25C6 24.4477 6.44772 24 7 24C7.55228 24 8 24.4477 8 25C8 25.5523 7.55228 26 7 26Z" fill="#FCE300" stroke="#FCE300" stroke-width="3" stroke-linecap="round" stroke-linejoin="round"/>
<path d="M26 5H22L19.32 18.39C19.2286 18.8504 18.9781 19.264 18.6125 19.5583C18.2468 19.8526 17.7893 20.009 17.32 20H7.6C7.1307 20.009 6.67318 19.8526 6.30754 19.5583C5.94191 19.264 5.69145 18.8504 5.6 18.39L4 10H21" stroke="#FCE300" stroke-width="3" stroke-linecap="round" stroke-linejoin="round"/>
</svg>
