<svg class="waste-icon" data-name="Layer 1" xmlns="http://www.w3.org/2000/svg" xmlns:xlink="http://www.w3.org/1999/xlink" viewBox="0 0 100 100"><defs><style>
svg,
svg line,
svg polyline,
svg polygon,
svg path,
svg circle,
svg clipPath,
svg rect {
    filter: drop-shadow(0px 1px 2px rgb(46, 19, 62, 0.6));
}
.waste-cls-1,.waste-cls-2{fill:none;}.waste-cls-1,.waste-cls-3{stroke:#fff;}.waste-cls-1,.waste-cls-2,.waste-cls-3{stroke-linecap:round;stroke-linejoin:round;stroke-width:2px;}.waste-cls-2{stroke:#999b98;}.waste-cls-3{fill:#99d98c;}.waste-cls-4{fill:#799941;stroke:#799941;}.waste-cls-4,.waste-cls-5{stroke-miterlimit:10;}.waste-cls-5{fill:#606060;stroke:#606060;}.waste-cls-6{clip-path:url(#clip-path);}.waste-cls-7{clip-path:url(#clip-path-2);}</style><clipPath id="clip-path"><line class="waste-cls-1" x1="52.03" y1="78.01" x2="52.03" y2="64.11"/></clipPath><clipPath id="clip-path-2"><line class="waste-cls-1" x1="42.03" y1="77.01" x2="42.03" y2="57"/></clipPath></defs><line class="waste-cls-2" x1="47.36" y1="32.73" x2="47.36" y2="32.73"/><line class="waste-cls-2" x1="31.37" y1="36.31" x2="31.37" y2="36.31"/><path class="waste-cls-3" d="M44.75,18.19H65.32a8.39,8.39,0,0,1,8.39,8.39V27A1.94,1.94,0,0,1,71.77,29H38.29A1.94,1.94,0,0,1,36.36,27v-.46a8.39,8.39,0,0,1,8.39-8.39Z" transform="translate(6.71 -11.76) rotate(12.98)"/><rect class="waste-cls-4" x="46.88" y="37.76" width="7.89" height="7.27" rx="1.11" transform="translate(49.62 -24.14) rotate(49.79)"/><rect class="waste-cls-5" x="56.83" y="35.46" width="3.08" height="10.77" rx="1.11" transform="matrix(-0.96, -0.27, 0.27, -0.96, 103.33, 96.1)"/><rect class="waste-cls-5" x="38.85" y="35.92" width="6.51" height="10.77" rx="1.11" transform="translate(-5.74 6.81) rotate(-8.66)"/><line class="waste-cls-2" x1="42.88" y1="37.21" x2="43.75" y2="42.42"/><path class="waste-cls-3" d="M36.39,42.86H64.13A4.14,4.14,0,0,1,68.27,47V68.69A9.32,9.32,0,0,1,59,78H41.57a9.32,9.32,0,0,1-9.32-9.32V47A4.14,4.14,0,0,1,36.39,42.86Z"/><g class="waste-cls-6"><line class="waste-cls-1" x1="52.03" y1="78.01" x2="52.03" y2="64.11"/></g><line class="waste-cls-1" x1="52.03" y1="78.01" x2="52.03" y2="64.11"/><g class="waste-cls-7"><line class="waste-cls-1" x1="42.03" y1="77.01" x2="42.03" y2="57"/></g><line class="waste-cls-1" x1="42.03" y1="77.01" x2="42.03" y2="57"/><line class="waste-cls-2" x1="65.74" y1="37.58" x2="65.74" y2="37.58"/></svg>
